<?xml version="1.0" standalone="no"?>
<!DOCTYPE svg PUBLIC "-//W3C//DTD SVG 20010904//EN"
 "http://www.w3.org/TR/2001/REC-SVG-20010904/DTD/svg10.dtd">
<svg version="1.0" xmlns="http://www.w3.org/2000/svg"
 width="800.000000pt" height="800.000000pt" viewBox="0 0 800.000000 800.000000"
 preserveAspectRatio="xMidYMid meet">
<metadata>
Created by potrace 1.11, written by Peter Selinger 2001-2013
</metadata>
<g transform="translate(0.000000,800.000000) scale(0.100000,-0.100000)"
fill="#000000" stroke="none">
<path d="M1570 7951 l-54 -48 39 -89 c68 -154 192 -399 243 -481 164 -262 399
-652 496 -825 110 -196 184 -304 251 -370 67 -65 90 -71 155 -38 22 11 68 23
102 26 l63 6 -58 -52 c-31 -28 -71 -72 -89 -97 -30 -44 -30 -47 -12 -60 12 -9
33 -12 59 -8 l40 5 104 -138 c291 -382 487 -631 499 -631 7 -1 12 -14 12 -30
l0 -29 47 14 c63 19 63 19 42 -23 -12 -24 -15 -39 -9 -41 11 -4 212 14 285 25
l40 6 -24 -26 c-13 -15 -39 -31 -57 -37 -33 -11 -34 -12 -19 -40 8 -16 33 -39
54 -51 26 -14 42 -32 46 -48 3 -14 57 -84 121 -156 171 -193 384 -473 384
-505 0 -4 13 -13 30 -18 22 -8 37 -25 57 -66 15 -31 32 -56 39 -56 6 0 59 18
118 40 58 22 108 40 111 40 3 0 -15 -28 -40 -61 -45 -61 -111 -187 -102 -195
5 -5 161 43 197 61 65 33 69 25 15 -26 -75 -71 -74 -84 18 -218 82 -119 154
-235 186 -299 12 -23 26 -40 31 -37 6 4 10 -3 10 -14 0 -42 74 -53 184 -27
l58 14 -73 -74 c-52 -52 -68 -74 -55 -74 17 0 17 -1 1 -26 -20 -31 -19 -32 26
-39 26 -4 59 3 119 25 l82 30 -6 -27 c-13 -62 -18 -379 -7 -452 16 -101 29
-125 67 -129 27 -3 35 3 74 59 24 34 54 87 67 118 12 31 23 48 23 39 0 -33 32
-98 48 -98 8 0 35 12 59 26 25 14 46 24 47 22 9 -12 281 -934 296 -1003 6 -27
30 -88 54 -134 39 -78 45 -85 90 -102 61 -23 181 -114 206 -155 10 -18 28 -37
39 -44 33 -17 37 12 17 110 -24 115 -48 171 -316 725 -110 228 -136 285 -175
385 -18 47 -53 129 -78 183 -25 53 -44 97 -43 97 2 0 29 -9 60 -20 81 -27 161
-29 187 -3 20 19 20 20 -18 93 -24 47 -64 101 -108 148 -68 70 -70 73 -45 78
52 12 136 36 153 45 23 13 7 43 -35 65 -35 18 -132 20 -188 4 -19 -5 -36 -10
-37 -10 -1 0 10 21 25 48 73 125 123 278 96 295 -5 2 -40 -3 -78 -13 -52 -13
-76 -25 -93 -46 l-24 -29 6 50 c12 106 17 120 52 157 l36 37 -32 148 c-68 308
-159 643 -180 666 -4 4 -16 -8 -27 -28 -23 -43 -29 -44 -32 -2 -1 17 -7 68
-13 111 -10 74 -14 84 -65 150 -30 38 -54 80 -54 92 0 16 -10 29 -31 39 -21
11 -29 21 -25 32 8 19 9 213 2 220 -8 8 -74 -36 -91 -60 -18 -26 -18 -28 0 86
13 81 18 180 14 257 -1 14 2 34 5 45 10 29 -169 251 -364 450 -85 88 -221 229
-301 313 -144 150 -147 153 -196 159 l-50 5 -41 -68 -41 -68 -3 94 -3 95 -37
-2 c-20 -1 -61 -11 -92 -22 -31 -11 -56 -17 -56 -14 0 21 92 119 141 151 33
21 57 43 56 52 -3 19 -353 312 -472 395 -49 35 -210 140 -357 234 -228 146
-294 183 -460 257 -434 193 -603 260 -902 354 -126 39 -279 89 -339 111 -61
21 -113 39 -116 39 -3 0 -31 -22 -61 -49z m233 -122 c225 -56 410 -110 506
-146 208 -77 782 -326 860 -372 25 -15 112 -65 193 -110 164 -93 146 -67 169
-239 14 -99 22 -99 34 0 10 81 15 85 64 53 l41 -28 0 -226 c0 -127 4 -219 9
-211 5 8 26 94 47 190 20 96 40 178 44 182 3 5 35 -13 70 -39 110 -79 320
-244 320 -251 0 -4 -42 -48 -92 -99 l-93 -93 -3 -75 c-3 -43 0 -75 5 -75 5 0
54 13 108 30 55 16 101 28 103 26 2 -3 4 -82 3 -178 l0 -173 47 50 c26 28 83
89 127 136 l81 86 134 -127 134 -127 -36 -249 c-20 -137 -35 -250 -33 -252 2
-2 33 87 70 197 37 111 70 201 74 201 4 0 22 -16 41 -35 l33 -34 -58 -198
c-32 -109 -60 -205 -62 -213 -2 -8 36 63 84 158 l89 174 61 -77 c34 -43 90
-122 125 -176 34 -54 69 -98 77 -99 20 0 7 -225 -23 -400 -13 -74 -22 -137
-20 -139 2 -2 33 27 68 65 35 38 68 66 72 62 4 -4 0 -47 -8 -95 -9 -49 -26
-146 -38 -216 -13 -70 -20 -131 -16 -134 10 -11 71 56 109 120 34 56 35 57 49
35 57 -90 76 -173 82 -358 3 -124 17 -187 36 -175 5 3 10 14 10 23 0 25 47
122 59 122 6 0 21 -37 35 -82 35 -119 41 -143 80 -337 35 -173 35 -173 16
-200 -13 -17 -25 -63 -35 -128 -20 -137 -20 -154 5 -160 12 -3 20 -14 21 -29
1 -13 3 -28 4 -34 1 -5 3 -18 4 -27 2 -10 11 7 22 37 19 55 57 100 85 100 8 0
14 -4 14 -10 0 -5 -30 -80 -67 -166 -62 -146 -66 -157 -49 -169 15 -12 24 -9
63 15 45 29 100 47 110 37 3 -3 -18 -17 -47 -32 l-51 -26 38 -28 c78 -59 183
-185 183 -222 0 -38 -86 -31 -192 15 -13 6 -20 0 -31 -25 l-13 -34 -18 28 -18
27 -40 -40 c-22 -22 -44 -37 -49 -34 -5 3 -9 36 -9 74 0 52 -5 78 -21 105 -12
20 -23 35 -24 33 -2 -2 -15 -34 -30 -73 -14 -38 -47 -103 -72 -144 l-47 -75
-9 34 c-5 19 -7 109 -5 200 3 155 5 169 32 234 43 103 21 118 -122 81 -28 -7
-50 -9 -47 -5 10 17 111 68 168 86 31 10 57 21 57 24 0 29 -128 72 -217 72
-23 0 -80 -10 -128 -22 -48 -12 -88 -20 -89 -18 -2 1 -52 89 -111 193 -59 105
-116 204 -126 220 l-18 30 109 120 c60 66 107 121 105 124 -3 2 -67 -9 -144
-25 -77 -15 -143 -25 -147 -21 -11 11 16 64 68 134 27 36 47 68 44 70 -11 11
-337 -65 -355 -83 -2 -2 -21 26 -42 64 -21 37 -34 70 -31 73 4 3 96 43 205 89
108 46 196 84 195 86 -2 1 -103 -22 -226 -53 -176 -43 -226 -52 -238 -42 -8 6
-14 14 -14 18 0 3 61 22 134 41 74 19 133 36 131 38 -3 4 -251 -17 -286 -23
-11 -2 -29 14 -50 43 -50 70 -160 201 -291 347 -65 71 -118 133 -118 137 0 4
14 23 30 42 34 39 78 59 168 76 64 13 68 16 53 39 -7 11 -49 13 -230 9 -128
-2 -221 -1 -221 5 0 15 112 121 170 161 l55 38 -55 -7 c-79 -10 -235 -42 -309
-65 -61 -18 -65 -18 -77 -2 -6 9 -82 107 -168 217 -85 110 -156 203 -156 206
0 3 135 56 300 119 165 62 299 115 297 117 -2 1 -148 -36 -325 -84 l-322 -86
-30 28 c-16 15 -27 31 -25 35 2 3 63 24 135 45 72 22 127 41 121 43 -6 2 -68
-6 -139 -17 -173 -28 -170 -29 -222 24 -24 24 -42 46 -39 48 2 2 33 14 69 27
121 42 185 77 258 141 40 35 69 65 63 67 -6 2 -42 -1 -80 -7 -39 -6 -139 -11
-225 -11 -96 0 -184 -6 -233 -15 -43 -8 -83 -15 -89 -15 -21 0 -145 199 -401
642 -174 303 -573 1058 -558 1058 3 0 61 -14 128 -31z m4176 -5568 c88 -184
159 -337 156 -339 -2 -2 -14 3 -27 12 -12 9 -38 16 -58 16 l-35 0 -99 313
c-54 171 -101 319 -104 327 -13 41 19 -22 167 -329z"/>
<path d="M2890 7038 c3 -3 37 -31 75 -63 189 -158 437 -410 778 -791 351 -391
653 -792 1111 -1478 290 -434 303 -456 345 -571 58 -158 177 -459 203 -511 20
-40 57 -69 121 -93 22 -9 26 -8 21 2 -4 6 -23 37 -42 66 -55 85 -114 217 -212
472 -50 129 -103 252 -117 274 -35 54 -539 786 -688 1000 -203 292 -319 445
-441 586 -66 74 -193 220 -284 325 -303 348 -462 500 -701 670 -106 76 -181
125 -169 112z"/>
<path d="M4410 2409 c-127 -11 -487 -94 -731 -169 l-96 -30 -47 -117 c-32 -79
-58 -127 -78 -146 l-31 -28 7 -92 c6 -88 8 -93 38 -119 23 -20 43 -28 73 -28
l40 -1 -25 -20 c-178 -148 -467 -440 -454 -460 3 -5 -25 -62 -62 -127 -65
-112 -179 -344 -220 -444 -10 -27 -24 -48 -30 -48 -55 0 -451 -46 -573 -66
-363 -60 -521 -131 -455 -206 63 -69 401 -145 974 -217 564 -71 824 -84 1690
-85 525 -1 582 3 895 56 250 42 582 139 724 211 39 20 47 30 71 91 22 56 32
71 58 82 18 7 32 15 32 17 0 26 -52 137 -99 214 -34 53 -61 102 -61 110 0 7
-9 42 -21 76 -23 70 -73 143 -179 265 -40 47 -70 89 -67 97 10 23 -387 348
-595 487 -60 40 -108 75 -108 78 0 3 7 15 15 26 15 18 15 18 29 0 14 -17 15
-15 26 25 6 24 13 51 16 60 2 9 5 50 6 90 1 88 -28 203 -75 299 l-32 65 -60
12 c-172 35 -452 54 -595 42z m427 -108 c73 -11 139 -18 147 -15 33 13 96
-191 96 -313 l0 -58 -136 -58 c-75 -32 -157 -62 -183 -67 -178 -37 -761 -63
-926 -41 -116 16 -218 39 -240 54 -15 12 -13 25 26 180 l43 167 45 15 c124 40
496 120 716 153 87 14 260 6 412 -17z m327 -703 c94 -67 242 -175 328 -240
194 -146 213 -172 431 -550 113 -196 130 -228 124 -234 -8 -9 -312 -98 -492
-144 -343 -89 -601 -133 -845 -145 -69 -4 -145 -8 -170 -10 -25 -2 -214 -4
-420 -5 -398 -3 -402 -4 -80 -35 244 -23 709 -10 1270 35 185 15 182 16 178
-22 l-3 -33 -135 -22 c-485 -81 -421 -76 -875 -69 -225 4 -423 8 -440 10 -16
2 -84 7 -150 11 -119 6 -413 31 -490 40 -248 32 -337 61 -479 158 l-58 39 6
42 c19 121 152 437 255 608 23 37 41 75 41 86 0 22 75 124 156 211 73 80 188
174 294 244 47 31 93 63 102 73 14 13 28 15 75 10 105 -13 105 -9 11 -105
-159 -162 -218 -235 -218 -269 0 -27 -9 -39 -56 -76 -37 -29 -70 -46 -98 -50
-141 -22 -197 -76 -135 -132 19 -17 19 -17 -1 -31 -43 -30 -13 -73 90 -129 28
-15 50 -31 50 -36 0 -4 -21 -8 -47 -9 -106 -1 -162 -17 -193 -53 -11 -14 -5
-28 39 -97 28 -44 51 -86 51 -93 0 -8 -13 -19 -30 -25 -16 -6 -43 -16 -59 -22
-34 -12 -51 -46 -51 -100 0 -58 23 -107 55 -115 14 -3 29 -4 32 -1 3 4 19 -1
36 -9 27 -15 31 -14 48 3 18 18 18 20 -17 78 -20 33 -45 67 -56 76 -21 16 -21
16 6 23 35 9 116 83 116 106 0 10 -14 48 -31 84 -17 37 -29 69 -27 71 2 3 62
14 133 25 72 12 135 26 141 31 14 12 37 89 29 97 -4 4 -28 7 -53 7 -47 0 -47
0 -44 32 2 27 -3 35 -25 47 -35 18 -109 76 -97 76 5 0 31 -7 58 -15 27 -8 67
-15 88 -15 53 0 60 22 19 64 l-32 33 105 72 c58 39 162 125 230 190 l125 119
93 -21 c117 -25 289 -26 403 -2 83 17 262 97 420 189 44 25 84 46 89 46 5 0
86 -55 180 -122z"/>
<path d="M4315 2233 c-97 -6 -96 -6 -91 -73 l5 -59 -47 -8 c-53 -9 -409 -8
-450 1 l-27 6 30 -25 c17 -14 47 -30 68 -37 37 -11 46 -21 28 -33 -14 -8 25
-114 51 -142 27 -29 117 -87 124 -81 2 3 9 30 13 59 5 30 19 78 30 107 18 45
19 53 6 58 -40 16 -1 22 147 23 165 2 306 20 546 72 94 20 105 25 137 60 49
55 46 65 -22 73 -53 6 -437 5 -548 -1z"/>
<path d="M6410 1236 c0 -20 -63 -332 -75 -371 -41 -136 11 -255 112 -255 63 0
138 83 164 181 15 55 1 108 -62 232 -55 111 -139 239 -139 213z m-8 -407 c-4
-64 -2 -71 16 -76 14 -3 24 -19 31 -48 16 -65 15 -70 -16 -50 -45 28 -63 57
-63 101 0 34 25 144 33 144 2 0 1 -32 -1 -71z"/>
</g>
</svg>
